<?xml version="1.0" encoding="UTF-8" standalone="no"?>
<svg xmlns:dc="http://purl.org/dc/elements/1.1/" xmlns:cc="http://creativecommons.org/ns#" xmlns:rdf="http://www.w3.org/1999/02/22-rdf-syntax-ns#" xmlns:svg="http://www.w3.org/2000/svg" xmlns="http://www.w3.org/2000/svg" xmlns:sodipodi="http://sodipodi.sourceforge.net/DTD/sodipodi-0.dtd" xmlns:inkscape="http://www.inkscape.org/namespaces/inkscape" version="1.1" x="0px" y="0px" viewBox="0 0 94.5 99.318748" xml:space="preserve" id="svg22" sodipodi:docname="noun_1069598_cc.svg" width="94.5" height="99.318748" inkscape:version="0.92.1 r15371"><metadata id="metadata28"><rdf:RDF><cc:Work rdf:about=""><dc:format>image/svg+xml</dc:format><dc:type rdf:resource="http://purl.org/dc/dcmitype/StillImage"/><dc:title/></cc:Work></rdf:RDF></metadata><defs id="defs26"/><sodipodi:namedview pagecolor="#ffffff" bordercolor="#666666" borderopacity="1" objecttolerance="10" gridtolerance="10" guidetolerance="10" inkscape:pageopacity="0" inkscape:pageshadow="2" inkscape:window-width="640" inkscape:window-height="480" id="namedview24" showgrid="false" fit-margin-top="10" fit-margin-left="10" fit-margin-right="10" fit-margin-bottom="10" inkscape:zoom="1.888" inkscape:cx="47.5" inkscape:cy="36.2" inkscape:window-x="0" inkscape:window-y="0" inkscape:window-maximized="0" inkscape:current-layer="svg22"/><style type="text/css" id="style2">
	.st0{fill:none;stroke:#000000;stroke-width:2;stroke-linecap:round;stroke-linejoin:round;stroke-miterlimit:10;}
</style><path d="m 17.6,60.11875 c -1.9,0 -3.5,1.6 -3.5,3.5 0,1.9 1.6,3.5 3.5,3.5 1.9,0 3.5,-1.6 3.5,-3.5 0,-1.9 -1.6,-3.5 -3.5,-3.5 z m 0,4.9 c -0.8,0 -1.5,-0.7 -1.5,-1.5 0,-0.8 0.7,-1.5 1.5,-1.5 0.8,0 1.5,0.7 1.5,1.5 0,0.8 -0.7,1.5 -1.5,1.5 z" id="path4" inkscape:connector-curvature="0"/><path d="m 35.1,60.11875 c -1.9,0 -3.5,1.6 -3.5,3.5 0,1.9 1.6,3.5 3.5,3.5 1.9,0 3.5,-1.6 3.5,-3.5 0,-1.9 -1.6,-3.5 -3.5,-3.5 z m 0,4.9 c -0.8,0 -1.5,-0.7 -1.5,-1.5 0,-0.8 0.7,-1.5 1.5,-1.5 0.8,0 1.5,0.7 1.5,1.5 0,0.8 -0.7,1.5 -1.5,1.5 z" id="path6" inkscape:connector-curvature="0"/><path d="m 76.8,60.11875 c -1.9,0 -3.5,1.6 -3.5,3.5 0,1.9 1.6,3.5 3.5,3.5 1.9,0 3.5,-1.6 3.5,-3.5 0,-1.9 -1.6,-3.5 -3.5,-3.5 z m 0,4.9 c -0.8,0 -1.5,-0.7 -1.5,-1.5 0,-0.8 0.7,-1.5 1.5,-1.5 0.8,0 1.5,0.7 1.5,1.5 0,0.8 -0.7,1.5 -1.5,1.5 z" id="path8" inkscape:connector-curvature="0"/><path d="m 55.8,60.11875 c -1.9,0 -3.5,1.6 -3.5,3.5 0,1.9 1.6,3.5 3.5,3.5 1.9,0 3.5,-1.6 3.5,-3.5 0,-1.9 -1.6,-3.5 -3.5,-3.5 z m 0,4.9 c -0.8,0 -1.5,-0.7 -1.5,-1.5 0,-0.8 0.7,-1.5 1.5,-1.5 0.8,0 1.5,0.7 1.5,1.5 0,0.8 -0.7,1.5 -1.5,1.5 z" id="path10" inkscape:connector-curvature="0"/><path d="M 12.2,88.91875 H 23 c 1.2,0 2.2,-1.3 2.2,-3.1 v -72.3 c 0,-1.8 -0.9,-3.1 -2.2,-3.1 H 12.2 c -1.2,0 -2.2,1.3 -2.2,3.1 v 72.3 c 0,1.8 1,3.1 2.2,3.1 z m -0.2,-75.4 c 0,-0.6 0.2,-1 0.3,-1.1 h 10.5 c 0.1,0.1 0.3,0.5 0.3,1.1 v 6.1 H 12 Z m 0,8.1 h 11.1 v 4.4 H 12 Z m 0,6.4 h 11.1 v 43.4 H 12 Z m 0,45.4 h 11.1 v 4.4 H 12 Z m 0,6.3 h 11.1 v 6 c 0,0.6 -0.2,1 -0.3,1.1 H 12.3 c -0.1,-0.1 -0.3,-0.5 -0.3,-1.1 z" id="path12" inkscape:connector-curvature="0"/><path d="m 29.7,88.91875 h 10.8 c 1.2,0 2.2,-1.3 2.2,-3.1 v -72.3 c 0,-1.8 -0.9,-3.1 -2.2,-3.1 H 29.7 c -1.2,0 -2.2,1.3 -2.2,3.1 v 72.3 c 0.1,1.8 1,3.1 2.2,3.1 z m -0.1,-75.4 c 0,-0.6 0.2,-1 0.3,-1.1 h 10.5 c 0.1,0.1 0.3,0.5 0.3,1.1 v 6.1 H 29.6 Z m 0,8.1 h 11.1 v 4.4 H 29.6 Z m 0,6.4 h 11.1 v 43.4 H 29.6 Z m 0,45.4 h 11.1 v 4.4 H 29.6 Z m 0,6.3 h 11.1 v 6 c 0,0.6 -0.2,1 -0.3,1.1 H 29.9 c -0.1,-0.1 -0.3,-0.5 -0.3,-1.1 z" id="path14" inkscape:connector-curvature="0"/><path d="m 46.8,87.81875 10.7,1.5 c 0.1,0 0.2,0 0.2,0 1.1,0 2.1,-1.2 2.4,-2.8 l 9.2,-64.3 v 63.6 c 0,1.8 0.9,3.1 2.2,3.1 h 10.8 c 1.2,0 2.2,-1.3 2.2,-3.1 v -72.3 c 0,-1.8 -0.9,-3.1 -2.2,-3.1 H 71.4 c -0.9,0 -1.6,0.7 -1.9,1.6 -0.3,-0.3 -0.6,-0.4 -1,-0.5 l -10.6,-1.5 c -0.7,-0.1 -1.4,0.2 -1.9,0.9 -0.4,0.5 -0.6,1.2 -0.8,1.9 l -10.1,71.6 c -0.3,1.7 0.5,3.2 1.7,3.4 z m 24.4,-74.3 c 0,-0.6 0.2,-1 0.3,-1.1 H 82 c 0.1,0.1 0.3,0.5 0.3,1.1 v 6.1 H 71.2 Z m 0,8.1 h 11.1 v 4.4 H 71.2 Z m 0,6.4 h 11.1 v 43.4 H 71.2 Z m 0,45.4 h 11.1 v 4.4 H 71.2 Z m 0,6.3 h 11.1 v 6 c 0,0.6 -0.2,1 -0.3,1.1 H 71.5 c -0.1,-0.1 -0.3,-0.5 -0.3,-1.1 z m -13.9,-66.6 c 0.1,-0.6 0.3,-1 0.4,-1.1 l 10.4,1.5 c 0.1,0.1 0.2,0.5 0.1,1.2 l -0.9,6.1 -11,-1.6 z m -1.2,8 11,1.6 -0.6,4.3 -11,-1.6 z m -0.9,6.3 11,1.6 -6.1,42.9 -11,-1.6 z m -6.4,45 11,1.6 -0.6,4.3 -11,-1.6 z m -1.7,12.2 0.9,-6 11,1.6 -0.9,6 c -0.1,0.6 -0.3,1 -0.4,1.1 l -10.4,-1.5 c -0.2,-0.1 -0.3,-0.6 -0.2,-1.2 z" id="path16" inkscape:connector-curvature="0"/></svg>